<svg width="25" height="25" viewBox="0 0 25 25" fill="none" xmlns="http://www.w3.org/2000/svg">
<path d="M19.6017 0.000143213H5.39803C2.42147 0.000143213 0 2.42185 0 5.39805V19.6021C0 22.5783 2.42176 25 5.39803 25H19.6017C22.5782 25 25 22.5783 25 19.6021V5.39734C24.9997 2.42142 22.5782 0 19.6017 0V0.000143213ZM16.9051 3.99734C16.9051 3.51278 17.3015 3.11631 17.7864 3.11631H20.4301C20.9149 3.11631 21.3114 3.51277 21.3114 3.99734V6.64123C21.3114 7.1258 20.9149 7.52227 20.4301 7.52227H17.7864C17.3015 7.52227 16.9051 7.12581 16.9051 6.64123V3.99734ZM19.6017 23.6729H5.39803C3.15335 23.6729 1.32658 21.8467 1.32658 19.6015V9.02825H7.14808C8.41306 7.47502 10.3402 6.48307 12.4993 6.48307C14.6584 6.48307 16.5858 7.47502 17.8508 9.02825H23.6721V19.6015C23.6726 21.8467 21.847 23.6729 19.6018 23.6729H19.6017Z" fill="white"/>
<path d="M18.2991 13.0798C18.2991 16.2468 15.7027 18.8143 12.5001 18.8143C9.29754 18.8143 6.70117 16.2468 6.70117 13.0798C6.70117 9.91274 9.29754 7.34521 12.5001 7.34521C15.7027 7.34521 18.2991 9.91274 18.2991 13.0798Z" fill="white"/>
</svg>
