<svg width="76" height="79" viewBox="0 0 76 79" fill="none" xmlns="http://www.w3.org/2000/svg">
<path fill-rule="evenodd" clip-rule="evenodd" d="M38 78.5094C17.0131 78.5094 0 60.9345 0 39.2547C0 17.5749 17.0131 0 38 0C58.9869 0 76 17.5749 76 39.2547C76 60.9345 58.9869 78.5094 38 78.5094ZM59.0502 67.2938C58.7661 66.862 58.4078 66.3255 58.1201 65.9068C57.6189 65.1703 57.1176 64.4338 56.6689 63.7048C56.6471 63.6712 54.1681 60.2354 45.2381 59.8167C42.1311 59.8167 39.8729 57.4091 39.8674 54.0855L39.8095 52.3396C39.8095 52.0873 39.7806 52.6163 39.8095 52.3396V50.4704L41.619 48.6011C42.9418 47.9674 44.6229 46.9019 45.9529 45.8645L46.1971 45.6906C47.2485 45.0009 48.7178 43.5484 48.8571 42.9933L48.9223 42.2811C49.5972 38.6865 50.6667 32.1477 50.6667 29.9084C50.6667 21.1041 46.5229 16.8235 38 16.8235C29.3595 16.8235 25.3333 20.9807 25.3333 29.9084C25.3333 32.2076 26.4028 38.7145 27.0759 42.2755L27.1392 42.9334C27.2532 43.5185 28.585 44.9037 29.7612 45.6663L29.9386 45.7822C31.3645 46.8122 33.069 47.9599 34.381 48.6011L36.1905 50.4704V52.3396C36.2158 52.5976 36.1905 52.0667 36.1905 52.3396L36.1308 54.0855C36.1308 57.4035 33.8761 59.813 30.9139 59.813H30.9085C21.9405 60.1887 19.3402 63.6955 19.3366 63.6955C18.8806 64.4357 18.3811 65.1703 17.8763 65.9087C17.5922 66.3274 17.2339 66.862 16.948 67.2938C22.7692 71.9633 30.058 74.7709 37.9982 74.7709C45.9384 74.7709 53.229 71.9633 59.0502 67.2938ZM38 3.73854C19.0127 3.73854 3.61905 19.6404 3.61905 39.2547C3.61905 49.3226 7.69048 58.3905 14.2048 64.8525C14.896 63.7964 15.6343 62.7421 16.2857 61.686C16.2857 61.686 19.3076 56.5586 30.7619 56.0782C31.929 56.0782 32.5117 55.2893 32.5117 54.0855H32.5135C32.5117 53.1116 32.5117 52.3396 32.5117 52.3396C32.5117 52.0966 32.4737 51.8779 32.4629 51.6424C31.1528 51.0031 29.6328 50.1208 27.8685 48.8497C27.8685 48.8497 23.5256 46.0906 23.5256 42.9933C23.5256 42.9933 21.7161 33.4301 21.7161 29.9084C21.7161 21.2275 25.3098 13.0849 38.0018 13.0849C50.5237 13.0849 54.2875 21.2275 54.2875 29.9084C54.2875 33.3441 52.478 42.9933 52.478 42.9933C52.478 46.0047 48.1351 48.8497 48.1351 48.8497C46.407 50.1974 44.8762 51.0966 43.5335 51.7396C43.5245 51.9433 43.4919 52.1303 43.4919 52.3396C43.4919 52.3396 43.4901 53.1116 43.4901 54.0855C43.4865 55.2893 44.071 56.0782 45.2381 56.0782C56.8625 56.6165 59.7143 61.686 59.7143 61.686C60.3657 62.7421 61.1022 63.7964 61.7934 64.8525C68.3077 58.3905 72.381 49.3226 72.381 39.2547C72.381 19.6404 56.9873 3.73854 38 3.73854Z" fill="white"/>
</svg>
