<?xml version="1.0" standalone="no"?>
<!DOCTYPE svg PUBLIC "-//W3C//DTD SVG 20010904//EN"
 "http://www.w3.org/TR/2001/REC-SVG-20010904/DTD/svg10.dtd">
<svg version="1.0" xmlns="http://www.w3.org/2000/svg"
 width="700.000000pt" height="700.000000pt" viewBox="0 0 700.000000 700.000000"
 preserveAspectRatio="xMidYMid meet">
<metadata>
Created by potrace 1.14, written by Peter Selinger 2001-2017
</metadata>
<g transform="translate(0.000000,700.000000) scale(0.100000,-0.100000)"
fill="#000000" stroke="none">
<path d="M3215 6989 c-620 -57 -1181 -254 -1675 -590 -367 -249 -690 -572
-939 -939 -319 -469 -511 -994 -582 -1585 -18 -144 -18 -595 -1 -740 77 -647
304 -1228 671 -1718 782 -1044 2052 -1568 3331 -1376 613 93 1181 342 1675
735 141 113 416 388 529 529 747 938 969 2164 596 3295 -166 507 -439 953
-820 1344 -565 579 -1275 930 -2090 1032 -141 18 -559 26 -695 13z m355 -92
c146 -77 77 -303 -88 -284 -150 17 -187 216 -52 285 56 28 86 28 140 -1z m360
-13 c397 -63 870 -226 1203 -416 469 -266 850 -614 1150 -1053 613 -897 747
-2140 340 -3170 -175 -442 -420 -793 -796 -1140 -387 -357 -883 -615 -1457
-759 -221 -56 -267 -59 -76 -6 347 96 629 223 919 413 293 192 577 463 803
769 631 853 813 1979 478 2959 -214 626 -626 1180 -1169 1571 -449 323 -989
516 -1552 553 -57 4 -103 8 -103 9 0 0 11 23 25 50 33 66 34 136 1 201 l-25
48 82 -7 c45 -4 125 -14 177 -22z m-1043 -180 c-3 -3 -12 -4 -19 -1 -8 3 -5 6
6 6 11 1 17 -2 13 -5z m-44 -11 c-7 -2 -19 -2 -25 0 -7 3 -2 5 12 5 14 0 19
-2 13 -5z m-188 -48 c-413 -119 -750 -290 -1085 -549 -134 -103 -400 -368
-513 -511 -626 -786 -864 -1797 -651 -2755 163 -727 590 -1383 1205 -1845 425
-320 921 -518 1449 -579 74 -9 163 -16 198 -16 34 0 62 -1 62 -2 0 -2 -11 -25
-25 -52 -32 -63 -34 -144 -5 -201 11 -22 20 -41 20 -42 0 -9 -111 -1 -225 16
-605 89 -1234 361 -1694 732 -216 173 -475 445 -633 665 -234 327 -417 723
-518 1124 -198 788 -121 1622 214 2325 246 516 679 989 1182 1293 288 174 609
307 959 397 218 57 255 57 60 0z m1185 -141 c361 -41 659 -129 995 -294 307
-150 555 -328 801 -574 474 -474 758 -1045 861 -1732 14 -93 18 -181 18 -404
0 -305 -9 -401 -61 -640 -245 -1139 -1141 -2046 -2279 -2306 -371 -85 -805
-97 -1185 -33 -503 85 -978 298 -1382 621 -136 109 -364 337 -468 468 -131
165 -254 360 -350 555 -166 337 -253 633 -296 1005 -23 200 -15 598 15 785 87
536 292 1007 621 1425 102 128 351 379 480 482 421 334 917 551 1438 627 182
27 184 27 437 29 144 1 266 -3 355 -14z m-276 -6134 c57 -28 79 -63 84 -130 4
-65 -20 -111 -78 -142 -44 -24 -120 -20 -158 9 -95 70 -82 217 22 264 53 24
80 24 130 -1z m579 -77 c-7 -2 -19 -2 -25 0 -7 3 -2 5 12 5 14 0 19 -2 13 -5z
m-46 -9 c-3 -3 -12 -4 -19 -1 -8 3 -5 6 6 6 11 1 17 -2 13 -5z"/>
<path d="M3375 5643 c-448 -12 -890 -95 -1164 -220 -99 -45 -227 -131 -280
-188 -48 -52 -88 -130 -97 -191 -8 -58 19 -155 63 -221 146 -221 645 -395
1267 -444 213 -16 577 -7 752 20 325 49 581 140 743 265 102 79 150 162 151
261 0 218 -245 357 -741 420 -128 16 -640 40 -664 31 -13 -5 -15 -54 -15 -381
l0 -376 108 3 107 3 3 268 2 267 89 0 c198 0 523 -44 679 -91 80 -25 172 -72
202 -104 31 -33 20 -69 -36 -121 -202 -188 -818 -300 -1374 -250 -413 38 -692
102 -905 208 -277 138 -286 262 -26 397 103 53 192 86 346 126 253 67 469 93
820 102 550 13 1031 -65 1330 -214 150 -75 215 -143 215 -223 -1 -108 -71
-357 -167 -584 -168 -399 -381 -737 -626 -993 -369 -385 -704 -453 -1061 -215
-39 26 -124 99 -190 162 l-118 115 -39 -45 c-22 -25 -51 -61 -65 -82 -24 -35
-25 -38 -9 -61 9 -14 55 -61 103 -105 175 -160 322 -247 492 -294 111 -30 347
-33 450 -4 328 90 610 331 909 779 207 309 405 742 494 1077 25 95 30 135 31
235 1 114 -1 123 -28 174 -115 220 -508 389 -1069 461 -197 25 -480 39 -682
33z"/>
<path d="M1926 4633 c21 -84 102 -300 163 -432 89 -193 182 -362 288 -525 71
-108 86 -127 97 -115 46 49 127 151 124 157 -2 4 -48 81 -102 172 -101 168
-230 417 -282 546 l-29 71 -84 43 c-46 24 -103 58 -127 77 -24 18 -46 33 -49
33 -3 0 -2 -12 1 -27z"/>
<path d="M3396 4253 c-3 -42 -6 -316 -6 -608 l0 -533 23 -6 c29 -7 145 -7 175
0 l22 6 0 609 0 609 -104 0 -103 0 -7 -77z"/>
<path d="M3265 4120 c-92 -25 -272 -116 -360 -182 -390 -294 -773 -891 -988
-1538 -79 -236 -100 -403 -64 -505 92 -266 584 -466 1290 -524 165 -14 559
-14 724 0 388 32 703 106 948 223 235 113 345 239 345 397 0 81 -19 137 -68
201 -109 144 -381 276 -722 352 -147 32 -367 64 -495 71 -55 3 -128 8 -162 11
l-63 5 0 -105 0 -104 78 -6 c492 -39 770 -100 1014 -221 238 -119 267 -225 96
-345 -164 -116 -483 -210 -868 -257 -205 -25 -735 -25 -940 0 -484 59 -892
206 -965 348 -54 103 56 483 254 877 273 544 625 953 922 1072 41 16 82 31 92
34 15 5 17 19 17 111 0 58 -3 105 -7 104 -5 0 -39 -9 -78 -19z"/>
<path d="M3650 4032 l0 -109 43 -13 c128 -38 321 -174 465 -328 l54 -57 37 41
c69 78 94 120 82 142 -13 25 -166 163 -258 234 -86 66 -241 148 -337 177 -37
12 -72 21 -77 21 -5 0 -9 -49 -9 -108z"/>
<path d="M4460 3368 c-74 -93 -78 -62 31 -233 73 -115 241 -442 289 -561 33
-81 33 -82 94 -110 33 -16 93 -53 134 -82 58 -41 72 -48 67 -31 -4 12 -16 51
-26 88 -57 200 -167 447 -314 701 -81 141 -193 310 -204 309 -3 0 -35 -36 -71
-81z"/>
<path d="M3390 2321 l0 -484 -142 6 c-183 8 -445 42 -566 73 -173 45 -282 110
-282 167 0 28 76 98 154 142 157 88 383 145 749 190 l47 6 0 102 0 102 -97 -6
c-517 -35 -979 -235 -1054 -456 -30 -89 -4 -200 64 -272 106 -112 344 -196
665 -235 144 -18 603 -40 650 -31 l32 6 0 587 0 587 -110 0 -110 0 0 -484z"/>
</g>
</svg>
