<svg width="44" height="43" viewBox="0 0 44 43" fill="none" xmlns="http://www.w3.org/2000/svg">
<path d="M43.75 6.91071L40.1667 3.07143C31.2083 6.14286 26.7292 0 26.7292 0H17.7708C17.7708 0 13.2917 6.14286 4.33333 3.07143L0.75 6.91071C0.75 6.91071 5.22917 12.2857 5.22917 21.5C5.22917 30.7143 0.75 36.0893 0.75 36.0893L4.33333 39.9286C13.2917 36.8571 22.25 43 22.25 43C22.25 43 31.2083 36.8571 40.1667 39.9286L43.75 36.0893C43.75 36.0893 39.2708 30.7143 39.2708 21.5C39.2708 12.2857 43.75 6.91071 43.75 6.91071ZM37.0312 6.14286C37.5868 6.0815 38.1423 5.99682 38.6973 5.88165C39.0376 5.8124 39.3872 5.92004 39.6019 6.15039L40.1306 6.71875C40.3458 6.95665 40.3906 7.27922 40.229 7.54797C39.9963 7.93943 39.7451 8.39261 39.4943 8.89922C39.3512 9.19093 39.0196 9.35993 38.6701 9.35993C38.5537 9.35993 38.4281 9.33697 38.3118 9.29857C37.8551 9.12957 37.6487 8.67675 37.8458 8.29281C37.9802 8.0316 38.1058 7.77828 38.2402 7.54038C37.9086 7.5942 37.5683 7.64013 37.246 7.67099C36.7353 7.72481 36.3053 7.4252 36.2518 7.00288C36.189 6.58056 36.5385 6.19663 37.0312 6.1507L37.0312 6.14286ZM35.7235 14.0288C35.9743 13.046 36.279 12.0633 36.6282 11.1185C36.7805 10.7116 37.282 10.4888 37.7567 10.6194C38.2314 10.75 38.4914 11.1798 38.339 11.5867C38.0075 12.4927 37.7119 13.422 37.4792 14.3585C37.3896 14.7195 37.0133 14.9653 36.6013 14.9653C36.5385 14.9653 36.4758 14.9653 36.4134 14.9499C35.9295 14.8576 35.6251 14.4507 35.7327 14.036L35.7235 14.0288ZM35.1232 16.9925C35.186 16.5702 35.634 16.2785 36.1267 16.3244C36.6194 16.3783 36.9689 16.7622 36.9061 17.1845C36.763 18.1289 36.6734 19.0966 36.6286 20.0486C36.6106 20.4634 36.2167 20.7856 35.7327 20.7856H35.6968C35.204 20.7701 34.8189 20.4092 34.8369 19.9869C34.8817 18.9886 34.9801 17.975 35.1325 16.9922L35.1232 16.9925ZM8.10491 14.9502C8.04213 14.9656 7.97933 14.9656 7.91695 14.9656C7.50503 14.9656 7.1375 14.7199 7.03912 14.3589C6.79716 13.4145 6.51041 12.4852 6.17928 11.5871C6.02691 11.1802 6.28686 10.75 6.76157 10.6197C7.23628 10.4891 7.7382 10.712 7.89012 11.1189C8.23966 12.0633 8.544 13.0385 8.79475 14.0292C8.90233 14.4439 8.59758 14.8508 8.11408 14.943L8.10491 14.9502ZM5.00554 8.8917C4.75479 8.38505 4.50403 7.93938 4.27087 7.54044C4.1097 7.27169 4.15449 6.94912 4.36925 6.71123L4.89796 6.14287C5.11312 5.91252 5.47146 5.80488 5.80259 5.87412C6.35809 5.9893 6.91362 6.07363 7.46863 6.13534C7.96134 6.18915 8.31088 6.57308 8.24809 6.98752C8.1853 7.40984 7.75538 7.71698 7.25388 7.65562C6.92234 7.62477 6.5908 7.57884 6.25967 7.52502C6.38525 7.76291 6.51962 8.0087 6.654 8.27745C6.85116 8.66891 6.6452 9.12209 6.18808 9.28321C6.0717 9.32914 5.95533 9.34457 5.82975 9.34457C5.48021 9.34457 5.14908 9.16803 5.0055 8.88385L5.00554 8.8917ZM7.48705 36.8724C6.92275 36.9338 6.3585 37.0184 5.81179 37.1257C5.749 37.1412 5.67741 37.1487 5.61462 37.1487C5.34587 37.1487 5.08592 37.049 4.91595 36.857L4.37845 36.2736C4.16329 36.0357 4.1185 35.7131 4.28007 35.4443C4.51282 35.0529 4.76398 34.5997 5.01474 34.0931C5.2119 33.7016 5.7402 33.5247 6.18812 33.6937C6.64484 33.8627 6.8512 34.3156 6.65404 34.6995C6.51966 34.9682 6.38529 35.2295 6.25091 35.4749C6.59125 35.4211 6.93158 35.3751 7.27233 35.3443C7.75624 35.2829 8.21295 35.5901 8.26654 36.0124C8.32933 36.4347 7.97979 36.8186 7.48708 36.8646L7.48705 36.8724ZM8.78605 28.971C8.5353 29.9538 8.23056 30.9366 7.88143 31.8813C7.76505 32.2114 7.40672 32.4188 7.03039 32.4188C6.9408 32.4188 6.85122 32.4113 6.76164 32.3804C6.28693 32.2498 6.02697 31.82 6.17934 31.4131C6.51088 30.5071 6.80643 29.5778 7.03918 28.6413C7.14676 28.2265 7.62147 27.9578 8.10538 28.0579C8.58929 28.1501 8.89363 28.557 8.78604 28.9717L8.78605 28.971ZM9.38634 26.0073C9.33276 26.3912 8.93843 26.6754 8.49931 26.6754H8.38293C7.89022 26.6216 7.54068 26.2376 7.60347 25.8153C7.74664 24.8709 7.83623 23.9032 7.88102 22.9513C7.89901 22.5289 8.32014 22.1834 8.81285 22.2142C9.30556 22.2297 9.69068 22.5906 9.67268 23.013C9.62789 24.0112 9.52952 25.0248 9.37714 26.0076L9.38634 26.0073ZM8.82205 20.8013H8.78606C8.31135 20.8013 7.90823 20.4787 7.89023 20.0643C7.84543 19.1044 7.74706 18.1371 7.61268 17.2002C7.54989 16.7779 7.89943 16.394 8.39214 16.3402C8.88485 16.2942 9.33276 16.5859 9.39555 17.0083C9.53872 17.991 9.63751 18.9971 9.6911 20.0029C9.70909 20.4252 9.32397 20.7862 8.83126 20.8016L8.82205 20.8013ZM10.3538 6.98776C10.2822 6.56544 10.6137 6.17397 11.1064 6.11227C12.2978 5.95869 13.4624 5.65909 14.5641 5.21383C15.0121 5.03729 15.5496 5.20629 15.7556 5.59022C15.9615 5.97415 15.7644 6.43486 15.3164 6.61143C14.0535 7.11053 12.7273 7.45607 11.3748 7.63263C11.33 7.63263 11.2852 7.64017 11.2404 7.64017C10.8013 7.64017 10.4253 7.36388 10.3534 6.98749L10.3538 6.98776ZM17.3233 37.2334C17.1977 37.556 16.8485 37.7634 16.4722 37.7634C16.3826 37.7634 16.2843 37.748 16.1947 37.725C14.7433 37.3102 13.292 37.0339 11.8859 36.8879C11.3932 36.8341 11.0436 36.458 11.1064 36.0357C11.1692 35.6134 11.6171 35.3138 12.1006 35.3676C13.6323 35.5287 15.1913 35.8283 16.7589 36.2736C17.2249 36.4042 17.4844 36.8419 17.3232 37.2409L17.3233 37.2334ZM24.23 39.2223C23.6745 39.4756 23.1638 39.7214 22.7251 39.9518C22.5819 40.0286 22.4203 40.067 22.2592 40.067C22.098 40.067 21.9368 40.0286 21.7932 39.9518C21.3453 39.7214 20.8438 39.4756 20.2883 39.2223C19.8492 39.0228 19.6793 38.5621 19.912 38.1858C20.1448 37.8094 20.6823 37.6712 21.1213 37.8632C21.5333 38.0476 21.9096 38.2317 22.2591 38.4007C22.6086 38.2241 22.9938 38.0476 23.3969 37.8632C23.836 37.6637 24.3735 37.8094 24.6062 38.1858C24.8389 38.5621 24.669 39.0229 24.2299 39.2223H24.23ZM26.2992 4.89954C26.0932 4.89954 25.8873 4.83818 25.7257 4.72301C25.3406 4.43883 24.9642 4.14711 24.6239 3.84751H19.894C19.5444 4.15465 19.1773 4.44637 18.7922 4.72301C18.6218 4.84572 18.4158 4.89954 18.2187 4.89954C17.9587 4.89954 17.708 4.80733 17.5288 4.62325C17.2064 4.30068 17.26 3.817 17.6364 3.54071C18.0663 3.22603 18.4786 2.89557 18.8545 2.55004C19.0249 2.39647 19.2664 2.30426 19.5084 2.30426H25.009C25.2597 2.30426 25.4929 2.39647 25.6629 2.55004C26.0392 2.89558 26.4423 3.22568 26.881 3.54071C27.2573 3.817 27.3109 4.30103 26.9886 4.62325C26.8094 4.80768 26.5587 4.89954 26.2987 4.89954H26.2992ZM32.6328 36.881C31.2175 37.027 29.7749 37.3109 28.324 37.7181C28.2344 37.7411 28.136 37.7565 28.0464 37.7565C27.6701 37.7565 27.321 37.5491 27.1954 37.2265C27.043 36.8272 27.2938 36.3894 27.7597 36.2592C29.3186 35.8139 30.8863 35.5143 32.418 35.3532C32.9287 35.3073 33.3587 35.6066 33.4122 36.0213C33.475 36.4437 33.1167 36.8276 32.6328 36.8735L32.6328 36.881ZM33.2599 7.64101C33.2599 7.64101 33.1703 7.64101 33.1255 7.63347C31.7729 7.45693 30.438 7.1114 29.1838 6.61226C28.7359 6.43573 28.5388 5.97501 28.7447 5.59106C28.9507 5.2071 29.4794 5.03813 29.9361 5.21467C31.0379 5.65242 32.2025 5.95167 33.3938 6.1131C33.8865 6.17447 34.2181 6.56628 34.1465 6.9886C34.0749 7.37253 33.6986 7.64128 33.2595 7.64128L33.2599 7.64101ZM35.1143 26.0003C34.9711 25.0175 34.8723 24.0114 34.8188 23.0056C34.8008 22.5833 35.1859 22.2223 35.6786 22.2069C36.1533 22.1685 36.5924 22.5216 36.6104 22.9439C36.6552 23.9038 36.7536 24.8711 36.888 25.808C36.9508 26.2303 36.6012 26.6142 36.1085 26.668H35.9921C35.5442 26.668 35.1591 26.3839 35.1051 25.9999L35.1143 26.0003ZM36.3953 28.0505C36.8792 27.9583 37.3539 28.227 37.4615 28.6339C37.7034 29.5783 37.9902 30.5077 38.3213 31.4057C38.4737 31.8126 38.2137 32.2428 37.739 32.3731C37.6494 32.396 37.5599 32.4115 37.4703 32.4115C37.0939 32.4115 36.7356 32.2041 36.6192 31.874C36.2697 30.9295 35.9654 29.9543 35.7146 28.9636C35.607 28.5489 35.9118 28.142 36.3953 28.0498L36.3953 28.0505ZM39.4947 34.109C39.7454 34.6156 39.9962 35.0613 40.2293 35.4603C40.3905 35.729 40.3457 36.0516 40.131 36.2895L39.5935 36.8729C39.4231 37.0573 39.1635 37.1646 38.8948 37.1646C38.832 37.1646 38.7604 37.1646 38.6976 37.1417C38.1513 37.034 37.5866 36.9497 37.0224 36.8883C36.5297 36.8345 36.1801 36.4506 36.2429 36.0361C36.3057 35.6138 36.7624 35.3142 37.2371 35.368C37.5774 35.4064 37.9178 35.4448 38.2585 35.4986C38.1242 35.2529 37.9898 34.9995 37.8554 34.7233C37.6582 34.3318 37.8642 33.8786 38.3213 33.7175C38.778 33.5485 39.2979 33.725 39.4947 34.1168L39.4947 34.109Z" fill="white"/>
</svg>
