<svg width="38" height="43" viewBox="0 0 38 43" fill="none" xmlns="http://www.w3.org/2000/svg">
<path d="M18.7563 40.9219L15.8989 42.9999V35.2041C16.0403 35.2098 16.1649 35.2271 16.2558 35.2582C16.4609 35.3296 16.7335 35.5952 16.9728 35.8264C17.4439 36.2804 17.9758 36.797 18.7566 36.797C19.5375 36.797 20.0727 36.2804 20.5405 35.8264C20.7794 35.5923 21.052 35.3296 21.2575 35.2582C21.3517 35.2268 21.473 35.2098 21.6144 35.2041V38.8237L21.6136 43.0002L18.7563 40.9219Z" fill="white"/>
<path d="M20.4103 30.2997C20.4103 31.0634 19.6693 31.6829 18.7558 31.6829C17.8422 31.6829 17.1013 31.0634 17.1013 30.2997C17.1013 29.536 17.8422 28.9165 18.7558 28.9165C19.6693 28.9165 20.4103 29.5359 20.4103 30.2997Z" fill="white"/>
<path d="M24.7716 29.6892C25.1061 29.9291 25.5227 30.2278 25.5227 30.4286C25.5227 30.6322 25.1061 30.9281 24.7716 31.1681C24.3754 31.4526 23.966 31.7457 23.7711 32.1252C23.5697 32.5214 23.6036 32.9764 23.6379 33.4174C23.6653 33.7717 23.6958 34.21 23.5389 34.3383C23.382 34.4666 22.8458 34.4389 22.4123 34.4192C22.3815 34.4164 22.3476 34.4164 22.3168 34.4137H22.3134C22.2998 34.4137 22.2893 34.4109 22.2757 34.4109C21.7806 34.3884 21.2752 34.3774 20.8316 34.5281C20.3639 34.6871 20.0053 35.0221 19.6606 35.346C19.3671 35.6194 19.0018 35.9599 18.7561 35.9599C18.507 35.9599 18.1416 35.6194 17.8515 35.346C17.5034 35.0221 17.1448 34.6874 16.6805 34.5281C16.3803 34.4247 16.0488 34.397 15.7143 34.397C15.554 34.397 15.3899 34.4026 15.2262 34.4109C15.1818 34.4137 15.1408 34.4164 15.0964 34.4164C14.6629 34.4389 14.1268 34.4638 13.9699 34.3355C13.813 34.2073 13.8468 33.769 13.8709 33.4146C13.9051 32.9736 13.939 32.5186 13.7377 32.1225C13.5432 31.7401 13.1334 31.447 12.7371 31.1653C12.4026 30.9254 11.9861 30.6267 11.9861 30.4258C11.9861 30.2222 12.4026 29.9263 12.7371 29.6864C13.1334 29.4019 13.5428 29.1088 13.7377 28.7292C13.939 28.333 13.9051 27.8781 13.8709 27.437C13.8434 27.0827 13.813 26.6444 13.9699 26.5162C14.1268 26.3879 14.663 26.4156 15.0964 26.4353C15.636 26.4633 16.1925 26.4909 16.6772 26.3264C17.1449 26.1674 17.5035 25.8324 17.8481 25.5085C18.1416 25.235 18.507 24.8945 18.7527 24.8945C19.0018 24.8945 19.3638 25.235 19.6573 25.5085C20.0053 25.8324 20.3639 26.167 20.8282 26.3264C21.3129 26.4909 21.8694 26.4633 22.409 26.4353C22.8424 26.4128 23.3786 26.3879 23.5355 26.5162C23.6924 26.6444 23.6586 27.0827 23.6345 27.437C23.6002 27.8781 23.5664 28.3331 23.7677 28.7292C23.966 29.1143 24.3757 29.4074 24.7716 29.6892L24.7716 29.6892ZM21.6173 30.4317C21.6173 29.1423 20.3334 28.0928 18.756 28.0928C17.1787 28.0928 15.8948 29.1423 15.8948 30.4317C15.8948 31.7211 17.1787 32.7706 18.756 32.7706C20.3334 32.7703 21.6173 31.7211 21.6173 30.4317Z" fill="white"/>
<path d="M18.9731 10.5635C20.323 10.5635 21.5877 11.0446 22.5149 11.9021C21.4821 12.6374 20.1731 13.0783 18.7548 13.0783C17.3365 13.0783 16.0309 12.6371 14.9946 11.9021C15.9253 11.0442 17.1865 10.5635 18.5365 10.5635H18.9731Z" fill="white"/>
<path d="M21.313 7.66497C21.313 8.8455 20.1683 9.8026 18.7561 9.8026C17.3439 9.8026 16.1992 8.84558 16.1992 7.66497C16.1992 6.48445 17.3439 5.52734 18.7561 5.52734C20.1683 5.52734 21.313 6.48436 21.313 7.66497Z" fill="white"/>
<path d="M24.6171 7.86217V8.01697C24.6171 9.27237 24.0924 10.4248 23.2217 11.3132C22.5883 10.7487 21.8295 10.3244 20.9946 10.0606C21.7833 9.49611 22.2912 8.64188 22.2912 7.68434C22.2912 5.98762 20.7045 4.60864 18.7513 4.60864C16.7985 4.60864 15.2114 5.98729 15.2114 7.68434C15.2114 8.63873 15.716 9.49575 16.508 10.0606C15.6732 10.3244 14.9111 10.7487 14.281 11.3132C13.4101 10.4246 12.8855 9.27245 12.8855 8.01697V7.86217C12.8855 5.0502 15.5183 2.7627 18.7547 2.7627C21.991 2.7627 24.6172 5.0502 24.6172 7.86217H24.6171Z" fill="white"/>
<path d="M37.25 1.02928V37.4481C37.25 38.0174 36.6968 38.4774 36.0193 38.4774H22.7807V35.4486C23.3272 35.457 23.8838 35.401 24.2863 35.0617C24.8162 34.6184 24.7656 33.9594 24.7257 33.3789C24.702 33.0479 24.6754 32.7058 24.7693 32.5178C24.8532 32.3469 25.1651 32.1197 25.4367 31.9203C25.97 31.5278 26.5769 31.0846 26.5769 30.434C26.5769 29.7833 25.97 29.3373 25.4367 28.9476C25.1618 28.7485 24.8532 28.5213 24.7693 28.3501C24.6754 28.1622 24.7024 27.82 24.7257 27.489C24.7693 26.9085 24.8162 26.2495 24.2863 25.8062C23.7563 25.363 22.9684 25.4054 22.2743 25.4387C21.8785 25.4585 21.4694 25.4808 21.2447 25.4023C21.0403 25.3321 20.7687 25.0712 20.5303 24.8441C20.061 24.398 19.531 23.8905 18.7531 23.8905C17.9751 23.8905 17.4452 24.398 16.9758 24.8441C16.7378 25.074 16.4662 25.3321 16.2615 25.4023C16.0368 25.4808 15.6277 25.4582 15.2318 25.4387C14.5378 25.4023 13.7499 25.363 13.2199 25.8062C12.6899 26.2495 12.7405 26.9085 12.7805 27.489C12.8041 27.82 12.8307 28.1621 12.7369 28.3501C12.653 28.521 12.341 28.7482 12.0661 28.9476C11.5295 29.3401 10.926 29.7833 10.926 30.434C10.926 31.0846 11.5328 31.5306 12.0661 31.9203C12.341 32.1194 12.6496 32.3466 12.7369 32.5178C12.8307 32.7057 12.8037 33.0479 12.7805 33.3789C12.7369 33.9594 12.6899 34.6184 13.2199 35.0617C13.6257 35.401 14.1789 35.457 14.7288 35.4486V38.4774H1.48068C0.799934 38.4774 0.25 38.0146 0.25 37.4481V1.02928C0.25 0.459939 0.803246 0 1.48068 0H36.0159C36.6966 0 37.2498 0.462709 37.2498 1.02928H37.25ZM33.0015 16.7288C33.0015 16.4568 32.7365 16.2352 32.4113 16.2352H10.3002C9.97495 16.2352 9.70997 16.4568 9.70997 16.7288C9.70997 17.0008 9.97495 17.2224 10.3002 17.2224H32.4084C32.737 17.2224 33.002 17.0036 33.002 16.7288H33.0015ZM33.0015 21.4853C33.0015 21.2133 32.7365 20.9917 32.4113 20.9917H10.3002C9.97495 20.9917 9.70997 21.2133 9.70997 21.4853C9.70997 21.7573 9.97495 21.9789 10.3002 21.9789H32.4084C32.737 21.9789 33.002 21.7573 33.002 21.4853H33.0015ZM25.8925 8.08523V7.93378C25.8925 4.63855 22.6868 1.96035 18.7502 1.96035C14.8136 1.96035 11.608 4.6414 11.608 7.93378V8.08523C11.608 9.75955 12.4362 11.2769 13.7707 12.3621C13.7976 12.3875 13.8276 12.4125 13.8612 12.4351C15.1388 13.4418 16.8625 14.059 18.7502 14.059C20.6413 14.059 22.3616 13.442 23.6426 12.4351C23.6762 12.4125 23.7028 12.3902 23.7298 12.3649C25.0642 11.2793 25.8924 9.76233 25.8924 8.08525L25.8925 8.08523ZM6.16171 16.7282C6.16171 16.4562 5.89673 16.2346 5.57151 16.2346H5.08848C4.76326 16.2346 4.49828 16.4562 4.49828 16.7282C4.49828 17.0002 4.76326 17.2218 5.08848 17.2218H5.57151C5.8971 17.2218 6.16171 17.003 6.16171 16.7282ZM6.16171 21.4848C6.16171 21.2128 5.89673 20.9912 5.57151 20.9912H5.08848C4.76326 20.9912 4.49828 21.2128 4.49828 21.4848C4.49828 21.7568 4.76326 21.9784 5.08848 21.9784H5.57151C5.8971 21.9784 6.16171 21.7568 6.16171 21.4848Z" fill="white"/>
</svg>
