<svg width="43" height="43" viewBox="0 0 43 43" fill="none" xmlns="http://www.w3.org/2000/svg">
<path d="M25.2787 29.7142C24.4904 29.7142 23.847 30.3305 23.847 31.0807C23.847 31.8452 24.4905 32.4567 25.2787 32.4567C26.0718 32.4567 26.7156 31.8452 26.7156 31.0807C26.7156 30.3301 26.0721 29.7142 25.2787 29.7142ZM25.2787 34.2383C24.4904 34.2383 23.847 34.8545 23.847 35.6093C23.847 36.3688 24.4905 36.9854 25.2787 36.9854C26.0718 36.9854 26.7156 36.3692 26.7156 35.6093C26.7156 34.8545 26.0721 34.2383 25.2787 34.2383ZM30.0031 34.2383C29.2197 34.2383 28.5763 34.8545 28.5763 35.6093C28.5763 36.3688 29.2197 36.9854 30.0031 36.9854C30.7962 36.9854 31.44 36.3692 31.44 35.6093C31.44 34.8545 30.7965 34.2383 30.0031 34.2383ZM30.0031 34.2383C29.2197 34.2383 28.5763 34.8545 28.5763 35.6093C28.5763 36.3688 29.2197 36.9854 30.0031 36.9854C30.7962 36.9854 31.44 36.3692 31.44 35.6093C31.44 34.8545 30.7965 34.2383 30.0031 34.2383ZM25.2787 29.7142C24.4904 29.7142 23.847 30.3305 23.847 31.0807C23.847 31.8452 24.4905 32.4567 25.2787 32.4567C26.0718 32.4567 26.7156 31.8452 26.7156 31.0807C26.7156 30.3301 26.0721 29.7142 25.2787 29.7142ZM25.2787 34.2383C24.4904 34.2383 23.847 34.8545 23.847 35.6093C23.847 36.3688 24.4905 36.9854 25.2787 36.9854C26.0718 36.9854 26.7156 36.3692 26.7156 35.6093C26.7156 34.8545 26.0721 34.2383 25.2787 34.2383ZM28.8557 16.2264C28.5864 16.1307 25.3433 14.9936 23.4778 14.0428C23.0386 13.8182 21.8212 13.0204 21.6268 12.877C16.5978 9.02151 16.952 5.01762 16.9723 4.74069L16.9674 4.75035C17.0523 3.5799 17.4911 2.56677 18.2644 1.84065C21.0481 -0.787173 26.1021 1.88364 28.2619 3.02074C28.2668 3.02541 28.5661 3.17838 28.8357 3.31202C28.8806 3.33601 28.9255 3.34534 28.9753 3.35501L27.9926 4.98898C27.8829 5.17528 27.9578 5.40957 28.1523 5.50488C28.327 5.59553 28.5414 5.54787 28.6562 5.39023L30.8514 2.34684C31.0359 2.08889 30.9562 1.73529 30.6719 1.58233C30.4074 1.43902 30.0681 1.52501 29.9184 1.77829L29.3446 2.73375C29.0704 2.60011 28.6809 2.42314 28.6211 2.39448C26.3163 1.17608 20.9233 -1.67135 17.7399 1.32905C16.6673 2.33715 16.1432 3.79921 16.2084 5.45221C14.6417 6.7659 12.262 6.7136 10.7604 5.29457L9.94717 4.51573C9.7777 4.35809 9.50799 4.35809 9.34339 4.51573L7.96146 5.82482C6.64429 7.08127 4.59384 7.30121 3.02233 6.35504L1.97447 5.7245C1.59028 5.49521 1.14623 5.92046 1.38566 6.28839L2.04929 7.29648C3.03728 8.80154 2.80758 10.7651 1.50049 12.0265L0.123456 13.3545C-0.041152 13.5122 -0.041152 13.7654 0.123456 13.9231L0.936732 14.7066C2.48321 16.2019 2.48321 18.6101 0.936732 20.1055L0.123456 20.889C-0.041152 21.0466 -0.041152 21.3046 0.123456 21.4672L0.936732 22.241C2.48321 23.7364 2.48321 26.1493 0.936732 27.6399L0.123456 28.4234C-0.041152 28.5811 -0.041152 28.8344 0.123456 28.9967L1.49523 30.3201C2.80723 31.5815 3.0369 33.5401 2.0489 35.0501L1.39048 36.0536C1.14619 36.4215 1.59511 36.8468 1.9793 36.6175L3.03197 35.9869C4.38878 35.1651 6.7138 35.6 7.9311 36.5411C8.31529 36.8324 9.35303 37.8312 9.35303 37.8312C9.51764 37.9842 9.78699 37.9842 9.9516 37.8265L10.7697 37.0527C12.3312 35.567 14.8406 35.567 16.4022 37.048L17.2203 37.8315C17.3501 37.9559 17.5446 37.9845 17.7044 37.9079C17.0108 36.5271 16.6218 34.9791 16.6218 33.3498C16.6218 27.5256 21.5658 22.791 27.6473 22.791C29.5481 22.791 31.404 23.264 33.0306 24.1384C33.1802 23.4409 33.5345 22.7767 34.0934 22.2368L34.9115 21.458C35.0761 21.2957 35.0761 21.0374 34.9115 20.8798L34.0983 20.0963C33.6344 19.647 33.31 19.1168 33.1252 18.5529C38.2237 20.5498 42.6336 22.9913 42.2247 26.7849C42.0601 28.2996 41.1768 29.4173 39.5955 30.1149C38.8971 30.4255 38.1238 30.6118 37.3405 30.7217C36.1333 26.6512 32.2068 23.6601 27.5569 23.6938C22.3034 23.7368 17.8685 27.774 17.5746 32.7953C17.2509 38.3659 21.8904 43 27.6424 43C33.2 43 37.7254 38.6716 37.7254 33.349C37.7254 32.9335 37.6906 32.5272 37.6356 32.126C37.6158 31.935 37.5757 31.7007 37.5208 31.4238C38.349 31.2995 39.172 31.0892 39.9105 30.7596C41.7214 29.9664 42.779 28.6143 42.9687 26.856C43.5571 21.4054 35.7449 18.6533 28.8553 16.2265L28.8557 16.2264ZM8.46169 35.8294L21.9363 13.9578L23.029 14.617L8.46169 35.8294ZM27.6486 40.8984C23.2982 40.8984 19.7612 37.5111 19.7612 33.3496C19.7612 29.1835 23.2982 25.7962 27.6486 25.7962C31.1108 25.7962 34.0542 27.9461 35.1121 30.9275C33.3411 30.9658 31.7894 30.6936 31.201 30.3206C30.9417 29.9574 30.5025 29.7138 30.0087 29.7138C29.2156 29.7138 28.5771 30.33 28.5771 31.0802C28.5771 31.8447 29.2156 32.4562 30.0087 32.4562C30.752 32.4562 31.3607 31.9117 31.4306 31.2141C32.2439 31.4961 33.441 31.6634 34.7583 31.6634C34.9427 31.6634 35.1376 31.649 35.322 31.6444C35.4567 32.1939 35.5315 32.7624 35.5315 33.35C35.5312 37.5111 31.9937 40.8985 27.6486 40.8985L27.6486 40.8984ZM30.0032 34.2385C29.2198 34.2385 28.5763 34.8547 28.5763 35.6095C28.5763 36.369 29.2198 36.9856 30.0032 36.9856C30.7963 36.9856 31.4401 36.3693 31.4401 35.6095C31.4401 34.8546 30.7966 34.2385 30.0032 34.2385ZM25.2788 29.7144C24.4905 29.7144 23.8471 30.3306 23.8471 31.0808C23.8471 31.8453 24.4906 32.4569 25.2788 32.4569C26.0718 32.4569 26.7157 31.8454 26.7157 31.0808C26.7157 30.3303 26.0722 29.7144 25.2788 29.7144ZM25.2788 34.2385C24.4905 34.2385 23.8471 34.8547 23.8471 35.6095C23.8471 36.369 24.4906 36.9856 25.2788 36.9856C26.0718 36.9856 26.7157 36.3693 26.7157 35.6095C26.7157 34.8546 26.0722 34.2385 25.2788 34.2385ZM34.9127 13.3463L33.5357 12.0228C32.2286 10.7614 31.9993 8.79781 32.9869 7.29283L33.6453 6.28935C33.8847 5.92142 33.4407 5.49617 33.0565 5.72546L32.0038 6.35599C31.3903 6.72392 30.3126 6.8339 29.4196 6.81457L32.348 2.63877C32.6274 2.24219 32.7273 1.76462 32.6274 1.30102C32.5275 0.828109 32.2432 0.426868 31.8242 0.168616C31.6548 0.0586351 31.4202 0.106629 31.3054 0.268931C31.1958 0.436227 31.2406 0.655856 31.415 0.765829C31.6645 0.923467 31.834 1.16241 31.8938 1.43936C31.9537 1.7213 31.8938 2.00324 31.7292 2.2372L23.8617 13.4366C24.9983 14.0678 28.4546 15.3383 29.0702 15.5435C30.37 15.9768 31.6743 16.461 32.9664 16.9483C33.0663 16.1314 33.4404 15.3332 34.0988 14.7027L34.9121 13.9192C35.0774 13.7623 35.0774 13.5043 34.9128 13.3467L34.9127 13.3463ZM25.6832 4.51264C25.5137 4.355 25.244 4.355 25.0794 4.51264L24.2613 5.29148C22.7047 6.77717 20.1904 6.77717 18.6289 5.29148L17.8107 4.51264C17.7958 4.49831 17.7707 4.48864 17.7557 4.47931C17.6611 5.09552 17.6809 5.77407 17.8354 6.47622C18.3045 8.62149 19.786 10.6327 22.0062 12.2574L22.5651 12.629L26.9951 5.59708L25.6832 4.51264Z" fill="white"/>
</svg>
