<svg width="44" height="44" viewBox="0 0 44 44" fill="none" xmlns="http://www.w3.org/2000/svg">
<path d="M19.2561 5.71333C19.623 7.43258 20.7158 8.45917 22.1777 8.45917C23.632 8.45917 24.8354 7.31778 25.104 5.68321C25.2109 5.03408 25.3844 3.84498 25.424 3.23023C25.4759 2.42062 25.1839 1.63817 24.6003 1.02793C23.9753 0.374884 23.093 0 22.1777 0C21.2618 0 20.3788 0.374248 19.7545 1.02793C19.1708 1.63849 18.8785 2.42068 18.9311 3.23023C18.973 3.86955 19.1232 5.09364 19.256 5.71333H19.2561ZM20.7291 1.92542C21.1013 1.53548 21.6297 1.3116 22.1777 1.3116C22.7248 1.3116 23.2525 1.53549 23.6254 1.92542C23.9536 2.26894 24.1185 2.70267 24.0898 3.14689V3.14722C24.0535 3.71136 23.8831 4.87399 23.7848 5.47376C23.648 6.30658 23.098 7.14657 22.1777 7.14657C21.0903 7.14657 20.6994 6.07973 20.5639 5.44339C20.4474 4.90016 20.3022 3.7264 20.2652 3.14696C20.2363 2.7031 20.4011 2.26906 20.729 1.92549L20.7291 1.92542Z" fill="white"/>
<path d="M27.2644 24.832L27.5406 25.0695C27.6938 25.2015 27.8973 25.2586 28.1007 25.2273C28.3014 25.1954 28.4779 25.0772 28.5813 24.9042L32.7452 17.9578C32.8814 17.7304 32.8705 17.4459 32.7169 17.2293L28.0877 10.7009C28.0692 10.6751 28.0491 10.6509 28.0269 10.6277C27.1479 9.69811 25.9021 9.16504 24.6095 9.16504H19.5175C18.2246 9.16504 16.9787 9.69804 16.1005 10.6277C16.0783 10.6509 16.0585 10.6754 16.0397 10.7009L11.4105 17.2293C11.2569 17.4459 11.246 17.7304 11.3822 17.9574L15.5455 24.9039C15.6493 25.0769 15.825 25.1951 16.0261 25.227C16.2288 25.2589 16.4326 25.2015 16.5862 25.0695L16.8627 24.8317L16.051 40.1127H5.9209V43.0017H38.4451V40.1127H28.0747L27.2644 24.832ZM27.0303 20.4156L26.8374 16.7847L28.1768 18.0253L27.0303 20.4156ZM16.3068 23.5202L12.7867 17.6461L17.135 11.5134C17.7541 10.8773 18.6197 10.5132 19.5181 10.5132H24.6101C25.5084 10.5132 26.3751 10.8773 26.9936 11.5134L31.3418 17.6461L27.821 23.5202L27.2796 23.055L29.6291 18.1589C29.7564 17.895 29.6956 17.5806 29.4792 17.3804L26.5349 14.6529C26.3308 14.4642 26.0308 14.4162 25.7768 14.532C25.5229 14.6479 25.3662 14.9042 25.3809 15.1792L26.7851 41.6314H25.247L22.7307 26.1372C22.6774 25.8097 22.3907 25.5696 22.0538 25.5696H22.0535C21.7162 25.5696 21.4302 25.8107 21.3773 26.1382L18.8798 41.6315H17.3424L18.7473 15.1794C18.7616 14.9043 18.6049 14.6484 18.3513 14.5328C18.097 14.417 17.7974 14.465 17.5932 14.6537L14.6479 17.3812C14.4321 17.5814 14.3714 17.8961 14.498 18.1598L16.8475 23.0558L16.3068 23.5202ZM23.6121 40.1123H20.5118L22.056 30.5309L23.6121 40.1123ZM15.9502 18.0261L17.2899 16.7848L17.0977 20.416L15.9502 18.0261Z" fill="white"/>
<path d="M6.27588 4.20196L7.69398 2.81885L11.3352 6.37024L9.91709 7.75336L6.27588 4.20196Z" fill="white"/>
<path d="M0.5 16.209H5.92069V18.3238H0.5V16.209Z" fill="white"/>
<path d="M6.27588 30.0832L9.91745 26.7856L11.3352 28.0701L7.69362 31.3677L6.27588 30.0832Z" fill="white"/>
<path d="M32.6587 28.0699L34.0766 26.7856L37.718 30.0835L36.3001 31.3677L32.6587 28.0699Z" fill="white"/>
<path d="M38.0791 16.209H43.4998V18.3238H38.0791V16.209Z" fill="white"/>
<path d="M32.6587 6.37014L36.3004 2.81885L37.718 4.20206L34.0763 7.75336L32.6587 6.37014Z" fill="white"/>
</svg>
